<svg width="48" height="48" viewBox="0 0 48 48" fill="none" xmlns="http://www.w3.org/2000/svg">
<g clip-path="url(#clip0_425_4889)">
<path d="M23.7548 19.2539C22.866 19.2786 21.9978 19.3864 21.1573 19.5688C17.6774 20.5633 15.124 23.7563 15.124 27.5312C15.124 32.0986 18.862 35.8144 23.4564 35.8144C28.051 35.8144 31.7888 32.0985 31.7888 27.5312C31.7889 23.0632 28.2117 19.4106 23.7548 19.2539Z" fill="white"/>
<path d="M40.2162 6.90086C35.7395 2.45078 29.7877 0 23.4569 0C17.1261 0 11.1743 2.45078 6.69778 6.90086C3.37558 10.2034 1.16241 14.314 0.241211 18.7865C3.35614 13.1648 9.37511 9.34705 16.2748 9.34705C26.2653 9.34705 34.4094 17.3506 34.5632 27.2464C34.5656 27.341 34.5668 27.4359 34.5668 27.531C34.5668 33.6209 29.5829 38.5753 23.4569 38.5753C17.3309 38.5753 12.347 33.6208 12.347 27.5309C12.347 26.7827 12.4226 26.0517 12.566 25.3447C11.0303 27.58 10.1312 30.2799 10.1312 33.185C10.1312 40.7578 16.2381 46.939 23.8132 47.1181C30.0106 47.0278 35.8237 44.588 40.216 40.2214C44.6926 35.7714 47.1581 29.8546 47.1581 23.5611C47.1581 17.2677 44.6926 11.351 40.2162 6.90086Z" fill="white"/>
<path d="M28.0147 17.46C25.1676 14.1846 20.9603 12.1084 16.2742 12.1084C7.71957 12.1084 0.759766 19.0271 0.759766 27.5313C0.759766 29.6838 1.20292 31.7797 2.05617 33.7148C3.20298 36.099 4.76165 38.2978 6.69718 40.2217C8.03719 41.5538 9.51023 42.7052 11.0852 43.6668C8.7526 40.7992 7.35316 37.1519 7.35316 33.1853C7.35316 25.2285 12.9807 18.5547 20.4867 16.8882C21.4324 16.6271 22.4282 16.487 23.4563 16.487C23.5623 16.487 23.6678 16.4888 23.7731 16.4918C23.8986 16.489 24.0244 16.487 24.1506 16.487V16.5092C25.52 16.5936 26.8231 16.9248 28.0147 17.46Z" fill="white"/>
</g>
<defs>
<clipPath id="clip0_425_4889">
<rect width="47.3979" height="47.1181" fill="white"/>
</clipPath>
</defs>
</svg>
