<svg width="13" height="22" viewBox="0 0 13 22" fill="none" xmlns="http://www.w3.org/2000/svg">
<path d="M6.43798 20.7196H6.87292C7.68836 20.7196 8.09609 20.7196 8.38191 20.5119C8.47422 20.4449 8.5554 20.3637 8.62247 20.2714C8.83013 19.9855 8.83013 19.5778 8.83013 18.7624V12.5645H10.1893C10.9529 12.5645 11.3347 12.5645 11.6089 12.3813C11.7276 12.302 11.8296 12.2 11.9089 12.0813C12.0921 11.807 12.0921 11.4253 12.0921 10.6617C12.0921 9.89812 12.0921 9.51634 11.9089 9.24209C11.8296 9.12336 11.7276 9.02142 11.6089 8.94209C11.3347 8.75884 10.9529 8.75884 10.1893 8.75884H8.83013V6.58416C8.83013 6.07752 8.83013 5.82421 8.9129 5.62438C9.02326 5.35795 9.23493 5.14628 9.50136 5.03592C9.70119 4.95315 9.9545 4.95315 10.4611 4.95315C10.9678 4.95315 11.2211 4.95315 11.4209 4.87038C11.6873 4.76002 11.899 4.54835 12.0094 4.28192C12.0921 4.0821 12.0921 3.82878 12.0921 3.32214V2.83888C12.0921 2.27546 12.0921 1.99374 11.9903 1.77527C11.8822 1.54359 11.696 1.35737 11.4643 1.24934C11.2459 1.14746 10.9642 1.14746 10.4007 1.14746C8.42875 1.14746 7.44276 1.14746 6.67811 1.50402C5.86721 1.88215 5.21546 2.5339 4.83733 3.3448C4.48077 4.10945 4.48077 5.09544 4.48077 7.06742V8.75884H3.12159C2.35803 8.75884 1.97625 8.75884 1.702 8.94209C1.58327 9.02142 1.48133 9.12336 1.402 9.24209C1.21875 9.51634 1.21875 9.89812 1.21875 10.6617C1.21875 11.4253 1.21875 11.807 1.402 12.0813C1.48133 12.2 1.58327 12.302 1.702 12.3813C1.97625 12.5645 2.35803 12.5645 3.1216 12.5645H4.48077V18.7624C4.48077 19.5778 4.48077 19.9855 4.68843 20.2714C4.7555 20.3637 4.83668 20.4449 4.92899 20.5119C5.21481 20.7196 5.62254 20.7196 6.43798 20.7196Z" stroke="#0C0C0C" stroke-width="1.35917" stroke-linejoin="round"/>
</svg>
