<svg width="23" height="23" viewBox="0 0 23 23" fill="none" xmlns="http://www.w3.org/2000/svg">
<path d="M17.9521 4.5957C18.2697 4.59577 18.5273 4.8533 18.5273 5.1709C18.5273 5.48844 18.2697 5.74603 17.9521 5.74609C17.6346 5.74609 17.377 5.48848 17.377 5.1709C17.377 4.85326 17.6345 4.5957 17.9521 4.5957Z" fill="#292556" stroke="#0C0C0C" stroke-width="1.15026"/>
<path d="M1.27051 9.42741C1.27051 5.97686 1.27051 4.25159 2.14923 3.04213C2.43302 2.65153 2.77653 2.30802 3.16713 2.02423C4.37659 1.14551 6.10187 1.14551 9.55241 1.14551H13.6934C17.1439 1.14551 18.8692 1.14551 20.0787 2.02423C20.4693 2.30802 20.8128 2.65153 21.0966 3.04213C21.9753 4.25159 21.9753 5.97687 21.9753 9.42741V13.5684C21.9753 17.0189 21.9753 18.7442 21.0966 19.9537C20.8128 20.3443 20.4693 20.6878 20.0787 20.9716C18.8692 21.8503 17.1439 21.8503 13.6934 21.8503H9.55241C6.10186 21.8503 4.37659 21.8503 3.16713 20.9716C2.77653 20.6878 2.43302 20.3443 2.14923 19.9537C1.27051 18.7442 1.27051 17.0189 1.27051 13.5684V9.42741Z" stroke="#0C0C0C" stroke-width="1.7254" stroke-linejoin="round"/>
<path d="M16.224 11.4979C16.224 14.039 14.164 16.099 11.6229 16.099C9.0818 16.099 7.02183 14.039 7.02183 11.4979C7.02183 8.9568 9.0818 6.89683 11.6229 6.89683C14.164 6.89683 16.224 8.9568 16.224 11.4979Z" stroke="#0C0C0C" stroke-width="1.7254" stroke-linejoin="round"/>
</svg>
