<svg width="23" height="23" viewBox="0 0 23 23" fill="none" xmlns="http://www.w3.org/2000/svg">
<path d="M10.0591 9.77441V16.676V13.7285C10.0591 11.5447 11.8294 9.77441 14.0132 9.77441C15.3234 9.77441 16.3856 10.8366 16.3856 12.1468V16.676M6.0332 9.77441V16.676" stroke="#0C0C0C" stroke-width="1.24591" stroke-linecap="round" stroke-linejoin="round"/>
<path d="M7.17748 6.32507C7.17748 6.96034 6.66249 7.47533 6.02722 7.47533C5.39194 7.47533 4.87695 6.96034 4.87695 6.32507C4.87695 5.6898 5.39194 5.1748 6.02722 5.1748C6.66249 5.1748 7.17748 5.6898 7.17748 6.32507Z" fill="#0C0C0C"/>
<path d="M0.853516 7.12783C0.853516 4.63619 0.853516 3.39037 1.48804 2.51701C1.69297 2.23496 1.94101 1.98691 2.22307 1.78199C3.09642 1.14746 4.34224 1.14746 6.83388 1.14746H15.5779C18.0696 1.14746 19.3154 1.14746 20.1887 1.78199C20.4708 1.98691 20.7188 2.23496 20.9238 2.51701C21.5583 3.39037 21.5583 4.63619 21.5583 7.12783V15.8719C21.5583 18.3635 21.5583 19.6093 20.9238 20.4827C20.7188 20.7647 20.4708 21.0128 20.1887 21.2177C19.3154 21.8522 18.0696 21.8522 15.5779 21.8522H6.83388C4.34224 21.8522 3.09642 21.8522 2.22307 21.2177C1.94101 21.0128 1.69297 20.7647 1.48804 20.4827C0.853516 19.6093 0.853516 18.3635 0.853516 15.8719V7.12783Z" stroke="#0C0C0C" stroke-width="1.24591" stroke-linejoin="round"/>
</svg>
