<svg width="20" height="21" viewBox="0 0 20 21" fill="none" xmlns="http://www.w3.org/2000/svg">
<path fill-rule="evenodd" clip-rule="evenodd" d="M10 0.59082C4.48 0.59082 0 5.07082 0 10.5908C0 16.1108 4.48 20.5908 10 20.5908C15.52 20.5908 20 16.1108 20 10.5908C20 5.07082 15.52 0.59082 10 0.59082ZM11 17.5908H9V15.5908H11V17.5908ZM13.07 9.84082L12.17 10.7608C11.45 11.4908 11 12.0908 11 13.5908H9V13.0908C9 11.9908 9.45 10.9908 10.17 10.2608L11.41 9.00082C11.78 8.64082 12 8.14082 12 7.59082C12 6.49082 11.1 5.59082 10 5.59082C8.9 5.59082 8 6.49082 8 7.59082H6C6 5.38082 7.79 3.59082 10 3.59082C12.21 3.59082 14 5.38082 14 7.59082C14 8.47082 13.64 9.27082 13.07 9.84082Z" fill="#202020"/>
</svg>
