<svg width="25" height="24" viewBox="0 0 25 24" fill="none" xmlns="http://www.w3.org/2000/svg">
<g opacity="0.7">
<path d="M12.7881 16C14.4449 16 15.7881 14.6569 15.7881 13C15.7881 11.3431 14.4449 10 12.7881 10C11.1312 10 9.78809 11.3431 9.78809 13C9.78809 14.6569 11.1312 16 12.7881 16Z" stroke="white" stroke-width="1.5"/>
<path d="M10.5661 21H15.0101C18.1311 21 19.6921 21 20.8131 20.265C21.2969 19.9482 21.7135 19.5391 22.0391 19.061C22.7881 17.961 22.7881 16.428 22.7881 13.364C22.7881 10.3 22.7881 8.76705 22.0391 7.66705C21.7135 7.18904 21.2969 6.77991 20.8131 6.46305C20.0931 5.99005 19.1911 5.82105 17.8101 5.76105C17.1511 5.76105 16.5841 5.27105 16.4551 4.63605C16.3565 4.17092 16.1004 3.75408 15.7299 3.456C15.3595 3.15791 14.8975 2.99686 14.4221 3.00005H11.1541C10.1661 3.00005 9.31509 3.68505 9.12109 4.63605C8.99209 5.27105 8.42509 5.76105 7.76609 5.76105C6.38609 5.82105 5.48409 5.99105 4.76309 6.46305C4.27962 6.78001 3.86336 7.18914 3.53809 7.66705C2.78809 8.76705 2.78809 10.299 2.78809 13.364C2.78809 16.429 2.78809 17.96 3.53709 19.061C3.86109 19.537 4.27709 19.946 4.76309 20.265C5.88409 21 7.44509 21 10.5661 21Z" stroke="white" stroke-width="1.5"/>
<path d="M19.7881 10H18.7881" stroke="white" stroke-width="1.5" stroke-linecap="round"/>
</g>
</svg>
