<svg width="28" height="28" viewBox="0 0 28 28" fill="none" xmlns="http://www.w3.org/2000/svg">
<path d="M24.1183 9.80545L17.5306 8.84804L14.5857 2.87786C14.5053 2.7144 14.373 2.58208 14.2095 2.50165C13.7996 2.29927 13.3014 2.46792 13.0964 2.87786L10.1516 8.84804L3.56388 9.80545C3.38225 9.83139 3.2162 9.91701 3.08906 10.0467C2.93537 10.2047 2.85067 10.4173 2.85359 10.6376C2.85651 10.858 2.9468 11.0682 3.10463 11.2221L7.87091 15.869L6.74486 22.4308C6.71845 22.5834 6.73534 22.7404 6.79361 22.8839C6.85189 23.0275 6.94921 23.1518 7.07455 23.2428C7.19989 23.3338 7.34822 23.3879 7.50274 23.399C7.65725 23.41 7.81176 23.3775 7.94875 23.3051L13.8411 20.2072L19.7334 23.3051C19.8943 23.3908 20.0811 23.4193 20.2601 23.3882C20.7116 23.3103 21.0152 22.8822 20.9373 22.4308L19.8113 15.869L24.5775 11.2221C24.7073 11.095 24.7929 10.9289 24.8188 10.7473C24.8889 10.2932 24.5723 9.8729 24.1183 9.80545Z" fill="#FCA420"/>
</svg>
