<svg width="87" height="48" viewBox="0 0 87 48" fill="none" xmlns="http://www.w3.org/2000/svg">
<path d="M-48 2H-18.8573V16.5713H-33.4287L-48 2ZM-48 16.5713H-33.4287L-18.8573 31.1427H-48V16.5713ZM-48 31.1427H-33.4287V45.714L-48 31.1427Z" fill="black"/>
<path d="M-2.41406 13.4954H9.36594V17.2387H2.04461V22.4407H9.36594V26.1014H2.04461V32.762H-2.41406V13.4954ZM11.7879 19.4954H15.9993V22.2754C16.2193 21.32 16.6693 20.5867 17.3479 20.0734C18.0439 19.5407 18.8166 19.2754 19.6599 19.2754C20.1006 19.2754 20.4679 19.3127 20.7606 19.3854V23.294C20.3406 23.2434 19.9179 23.216 19.4946 23.2114C18.3386 23.2114 17.4679 23.5867 16.8799 24.3394C16.2939 25.0734 15.9993 26.174 15.9993 27.6427V32.762H11.7899V19.4954H11.7879ZM27.4086 33.12C26.1246 33.12 25.0046 32.8167 24.0506 32.2114C23.1146 31.606 22.3706 30.7467 21.9039 29.734C21.4086 28.6707 21.1593 27.4674 21.1593 26.1287C21.1593 24.8074 21.4179 23.614 21.9313 22.5507C22.4126 21.5234 23.1766 20.6547 24.1333 20.046C25.1046 19.4407 26.2153 19.1374 27.4639 19.1374C28.3993 19.1374 29.2353 19.34 29.9686 19.7434C30.7019 20.148 31.2526 20.6987 31.6199 21.3947V19.4954H35.8033V32.762H31.6199V30.89C31.2526 31.5507 30.6839 32.0914 29.9133 32.514C29.1426 32.9227 28.2813 33.1307 27.4086 33.12ZM28.6199 29.624C29.6286 29.624 30.4086 29.294 30.9593 28.6334C31.5099 27.9727 31.7853 27.1374 31.7853 26.1287C31.7853 25.138 31.5099 24.312 30.9593 23.6514C30.4086 22.9907 29.6286 22.6607 28.6199 22.6607C27.6646 22.6607 26.8953 22.9814 26.3079 23.624C25.7393 24.2667 25.4546 25.1007 25.4546 26.1287C25.4546 27.1567 25.7393 28 26.3079 28.6607C26.8953 29.3034 27.6659 29.624 28.6199 29.624ZM38.7486 19.4954H42.9599V21.422C43.2546 20.742 43.7306 20.1914 44.3906 19.7707C45.0706 19.35 45.8593 19.1374 46.7579 19.1374C48.8499 19.1374 50.2359 19.9534 50.9139 21.5874C51.2873 20.8467 51.8713 20.234 52.5933 19.826C53.3653 19.3614 54.2519 19.1234 55.1526 19.1374C58.2906 19.1374 59.8593 20.9347 59.8593 24.532V32.762H55.6206V25.3027C55.6206 24.4047 55.4553 23.744 55.1253 23.3214C54.7946 22.9 54.2993 22.688 53.6386 22.688C52.9233 22.688 52.3726 22.936 51.9873 23.4314C51.6019 23.9087 51.4093 24.7427 51.4093 25.936V32.762H47.1706V25.2754C47.1706 24.3767 47.0059 23.7247 46.6753 23.3214C46.3646 22.9 45.8773 22.688 45.2179 22.688C44.4833 22.688 43.9233 22.936 43.5379 23.4314C43.1526 23.9087 42.9599 24.7427 42.9599 25.936V32.762H38.7499V19.4954H38.7486ZM75.6793 25.4407C75.6793 26.0087 75.6419 26.624 75.5673 27.2847H65.7706C65.8079 28.1474 66.1006 28.8067 66.6513 29.2667C67.2019 29.7247 67.9466 29.9547 68.8806 29.9547C70.1839 29.9547 71.0099 29.5594 71.3579 28.7707H75.4866C75.2839 30.074 74.5686 31.128 73.3393 31.936C72.1286 32.7247 70.6419 33.12 68.8806 33.12C66.6059 33.12 64.8166 32.5047 63.5133 31.2754C62.2293 30.0454 61.5866 28.3307 61.5866 26.1287C61.5866 24.6974 61.8799 23.4587 62.4673 22.4127C63.0346 21.368 63.9093 20.5227 64.9719 19.9907C66.0553 19.4227 67.3119 19.1374 68.7446 19.1374C70.1013 19.1374 71.3026 19.4034 72.3486 19.936C73.4126 20.4687 74.2299 21.2114 74.7979 22.1654C75.3859 23.1207 75.6793 24.212 75.6793 25.4407ZM71.5213 24.67C71.5033 23.7894 71.2559 23.1187 70.7779 22.6607C70.3019 22.2027 69.6126 21.9727 68.7139 21.9727C67.8153 21.9727 67.0999 22.22 66.5673 22.716C66.0539 23.1934 65.7879 23.844 65.7686 24.67H71.5213ZM77.5359 19.4954H81.7473V22.2754C81.9673 21.32 82.4173 20.5867 83.0959 20.0734C83.7546 19.5547 84.5693 19.2734 85.4079 19.2754C85.8479 19.2754 86.2159 19.3127 86.5086 19.3854V23.294C86.0886 23.2434 85.6659 23.216 85.2426 23.2114C84.0866 23.2114 83.2159 23.5867 82.6279 24.3394C82.0399 25.0734 81.7473 26.174 81.7473 27.6427V32.762H77.5359V19.4954Z" fill="black"/>
</svg>
