<svg width="119" height="48" viewBox="0 0 119 48" fill="none" xmlns="http://www.w3.org/2000/svg">
<path fill-rule="evenodd" clip-rule="evenodd" d="M10.2031 30.1679C10.2031 30.8798 9.6812 31.4651 8.93865 31.4651C8.21625 31.4651 7.69434 30.8785 7.69434 30.1679V17.7986C7.69434 17.0865 8.21625 16.5012 8.95881 16.5012C9.6812 16.5012 10.2031 17.0879 10.2031 17.7986V30.1679Z" fill="black"/>
<path fill-rule="evenodd" clip-rule="evenodd" d="M26.4188 17.7985V29.1011C26.4188 30.6291 25.6365 31.4878 24.3922 31.4878H24.2925C23.1087 31.4878 22.5459 30.7758 22.0447 29.7291L19.5157 24.6011L17.2679 19.3065L17.3284 24.4345L17.3486 30.1478C17.3486 30.8598 16.8272 31.4451 16.0841 31.4451C15.3617 31.4451 14.8403 30.8584 14.8403 30.1478V18.8452C14.8403 17.4425 15.6226 16.4585 16.9879 16.4585H17.0882C18.3526 16.4585 18.874 17.1705 19.3763 18.2172L21.8644 23.3038L23.9918 28.2438L23.9319 23.5131L23.9117 17.7999C23.9117 17.0878 24.4331 16.5025 25.1762 16.5025C25.8969 16.5012 26.4188 17.0865 26.4188 17.7985Z" fill="black"/>
<path fill-rule="evenodd" clip-rule="evenodd" d="M36.4745 30.1479C36.4745 30.8598 35.9532 31.4451 35.21 31.4451C34.4882 31.4451 33.9663 30.8585 33.9663 30.1479V18.9505H30.8555C30.2137 18.9505 29.6924 18.4479 29.6924 17.7159C29.6924 17.0039 30.2137 16.5026 30.8555 16.5026H39.5853C40.2271 16.5026 40.749 17.0052 40.749 17.7372C40.749 18.4492 40.2271 18.9505 39.5853 18.9505H36.4745V30.1479Z" fill="black"/>
<path fill-rule="evenodd" clip-rule="evenodd" d="M44.0204 29.7293V18.1133C44.0204 17.0253 44.6022 16.4187 45.6662 16.46H52.8913C53.5331 16.46 54.0544 16.9826 54.0544 17.6947C54.0544 18.4067 53.5331 18.908 52.8913 18.908H46.5085V22.508H52.1482C52.7709 22.508 53.2721 22.9893 53.2721 23.68C53.2721 24.3706 52.7709 24.852 52.1482 24.852H46.5085V28.9959H52.8913C53.5331 28.9959 54.0544 29.5186 54.0544 30.2306C54.0544 30.9426 53.5331 31.444 52.8913 31.444H45.6058C44.5625 31.4453 43.9812 30.8386 44.0204 29.7293Z" fill="black"/>
<path fill-rule="evenodd" clip-rule="evenodd" d="M67.7232 31.5079C68.4255 31.1306 68.6467 30.3559 68.3051 29.7493L65.7963 25.1039C67.8638 24.6853 69.0683 23.0946 69.0683 20.9386C69.0683 18.6786 67.7042 16.46 64.4321 16.46H59.676C58.6126 16.4187 58.0308 17.0253 58.0308 18.1133V30.1693C58.0308 30.8799 58.5521 31.4666 59.2745 31.4666C60.0176 31.4666 60.539 30.8813 60.539 30.1693L60.5188 25.6066H63.1676L65.9575 30.9853C66.2975 31.5919 67.0406 31.864 67.7232 31.5079ZM64.4909 23.24H60.5172V18.9067H64.4707C65.7951 18.9067 66.5383 19.7853 66.5383 21.0627C66.5383 22.34 65.836 23.24 64.4909 23.24Z" fill="black"/>
<path fill-rule="evenodd" clip-rule="evenodd" d="M74.245 30.3359C72.7403 28.9332 72.0576 26.7359 72.0576 23.9732C72.0576 21.1892 72.7201 19.0132 74.2058 17.6319C75.1286 16.7946 76.3724 16.2292 78.1795 16.2292C79.7649 16.2292 80.9896 16.6066 81.9125 17.4225C82.7155 18.0919 83.2973 19.0346 83.6384 20.3532C83.8187 21.0439 83.3573 21.7345 82.5951 21.8812C81.8727 22.0066 81.2914 21.5252 81.0702 20.8346C80.8294 20.1652 80.5074 19.6839 80.1266 19.3479C79.6047 18.8666 78.963 18.6572 78.119 18.6572C77.2163 18.6572 76.4329 18.9292 75.851 19.5359C75.0082 20.4146 74.6465 21.9852 74.6465 23.9732C74.6465 25.9412 74.9881 27.5105 75.8712 28.3892C76.453 28.9958 77.2163 29.2678 78.0989 29.2678C79.0218 29.2678 79.724 29.0172 80.307 28.4519C80.6071 28.1585 80.8692 27.7825 81.0495 27.3425C81.3105 26.6932 81.8526 26.2119 82.5542 26.3799C83.2565 26.5479 83.6989 27.2585 83.4777 27.9492C83.1159 29.0998 82.4943 30.0212 81.6515 30.6492C80.7286 31.3398 79.5846 31.6958 78.1398 31.6958C76.2934 31.6958 75.1286 31.1305 74.245 30.3359Z" fill="black"/>
<path fill-rule="evenodd" clip-rule="evenodd" d="M92.6698 16.2292C88.3141 16.2292 86.4678 19.2852 86.4678 23.9732C86.4678 28.8079 88.2951 31.7172 92.6698 31.7172C96.9644 31.7172 98.8516 28.8079 98.8516 23.9732C98.8516 19.2012 96.9851 16.2292 92.6698 16.2292ZM92.6496 18.6786C95.038 18.6786 96.2817 20.4146 96.2817 23.9732C96.2817 27.5305 95.0173 29.2678 92.6496 29.2678C90.2612 29.2678 89.0567 27.5318 89.0567 23.9732C89.0567 20.4159 90.3009 18.6786 92.6496 18.6786Z" fill="black"/>
<path fill-rule="evenodd" clip-rule="evenodd" d="M118.319 30.1478C118.319 30.8598 117.797 31.4451 117.055 31.4451C116.332 31.4451 115.81 30.8584 115.81 30.1478V24.5385L115.871 19.0758L114.124 24.6225L112.359 30.0851C112.058 31.0478 111.436 31.4251 110.653 31.4251C109.83 31.4251 109.228 31.0278 108.907 30.0651L107.1 24.6238L105.434 19.1612L105.494 24.5398V30.1491C105.494 30.8611 104.972 31.4464 104.23 31.4464C103.507 31.4464 102.986 30.8598 102.986 30.1491V18.9518C102.986 17.4025 103.788 16.5025 105.193 16.5025C106.518 16.5025 107.261 17.2345 107.681 18.5745L109.528 24.2878L110.652 28.1811L111.796 24.2878L113.642 18.5745C114.064 17.2345 114.787 16.5025 116.111 16.5025C117.516 16.5025 118.299 17.3812 118.299 18.9518L118.319 30.1478Z" fill="black"/>
<path d="M-12.562 26.1117C-12.562 26.486 -12.7054 26.8451 -12.9607 27.1099C-13.216 27.3746 -13.5622 27.5233 -13.9233 27.5233C-14.2843 27.5233 -14.6306 27.3746 -14.8859 27.1099C-15.1412 26.8451 -15.2846 26.486 -15.2846 26.1117V13.5001C-15.2846 13.1257 -15.1412 12.7666 -14.8859 12.5019C-14.6306 12.2371 -14.2843 12.0884 -13.9233 12.0884C-13.5622 12.0884 -13.216 12.2371 -12.9607 12.5019C-12.7054 12.7666 -12.562 13.1257 -12.562 13.5001V26.1117ZM-13.0345 34.8499C-13.2145 35.0366 -18.2771 39.4116 -27.5585 39.4116C-36.8399 39.4116 -41.8686 35.0599 -42.0824 34.8733C-42.2171 34.7555 -42.3281 34.6113 -42.4089 34.449C-42.4898 34.2866 -42.5389 34.1093 -42.5536 33.9272C-42.5682 33.7451 -42.548 33.5618 -42.4942 33.3878C-42.4404 33.2138 -42.354 33.0526 -42.2399 32.9133C-42.0049 32.6314 -41.6721 32.4572 -41.3138 32.4288C-40.9555 32.4004 -40.6009 32.5201 -40.3274 32.7616C-40.2486 32.8199 -35.7261 36.6233 -27.5697 36.6233C-19.4134 36.6233 -14.8571 32.7966 -14.812 32.7616C-14.5355 32.5222 -14.1797 32.4041 -13.8205 32.4325C-13.4612 32.4608 -13.1268 32.6333 -12.8883 32.9133C-12.6587 33.191 -12.5442 33.5514 -12.5695 33.9162C-12.5947 34.2811 -12.7578 34.6208 -13.0232 34.8616L-13.0345 34.8499ZM-42.5662 13.5001C-42.5459 13.1245 -42.3829 12.7725 -42.1131 12.5211C-41.8433 12.2697 -41.4884 12.1393 -41.1261 12.1584C-40.7903 12.1781 -40.4734 12.3262 -40.2366 12.574C-39.9998 12.8217 -39.8598 13.1516 -39.8436 13.5001V26.0883C-39.8436 26.4627 -39.9871 26.8218 -40.2424 27.0865C-40.4976 27.3513 -40.8439 27.5 -41.2049 27.5C-41.5659 27.5 -41.9122 27.3513 -42.1675 27.0865C-42.4228 26.8218 -42.5662 26.4627 -42.5662 26.0883V13.5001ZM-35.7373 10.7001C-35.717 10.3245 -35.5541 9.97254 -35.2843 9.7211C-35.0144 9.46972 -34.6596 9.33929 -34.2973 9.35839C-33.9615 9.37816 -33.6446 9.52622 -33.4078 9.77396C-33.1709 10.0217 -33.0309 10.3516 -33.0148 10.7001V29.3667C-33.0148 29.741 -33.1582 30.1001 -33.4135 30.3649C-33.6688 30.6296 -34.015 30.7783 -34.376 30.7783C-34.7371 30.7783 -35.0833 30.6296 -35.3386 30.3649C-35.5939 30.1001 -35.7373 29.741 -35.7373 29.3667V10.7001ZM-28.8747 10.0001C-28.8747 9.62568 -28.7313 9.2666 -28.476 9.00189C-28.2207 8.73713 -27.8745 8.58839 -27.5135 8.58839C-27.1524 8.58839 -26.8062 8.73713 -26.5509 9.00189C-26.2956 9.2666 -26.1522 9.62568 -26.1522 10.0001V30.2999C-26.1522 30.6744 -26.2956 31.0334 -26.5509 31.2981C-26.8062 31.5629 -27.1524 31.7117 -27.5135 31.7117C-27.8745 31.7117 -28.2207 31.5629 -28.476 31.2981C-28.7313 31.0334 -28.8747 30.6744 -28.8747 30.2999V10.0001ZM-22.1247 10.7001C-22.1247 10.3257 -21.9812 9.9666 -21.7259 9.70189C-21.4706 9.43712 -21.1244 9.28839 -20.7634 9.28839C-20.4023 9.28839 -20.0561 9.43712 -19.8008 9.70189C-19.5455 9.9666 -19.4021 10.3257 -19.4021 10.7001V29.3667C-19.4021 29.741 -19.5455 30.1001 -19.8008 30.3649C-20.0561 30.6296 -20.4023 30.7783 -20.7634 30.7783C-21.1244 30.7783 -21.4706 30.6296 -21.7259 30.3649C-21.9812 30.1001 -22.1247 29.741 -22.1247 29.3667V10.7001ZM-12.1908 3.00012H-42.8812C-43.5499 2.99547 -44.213 3.12769 -44.8323 3.38921C-45.4517 3.65067 -46.0153 4.03628 -46.4908 4.52393C-46.9662 5.01163 -47.3443 5.59173 -47.6032 6.23114C-47.8622 6.87049 -47.997 7.5566 -48 8.2501V39.7499C-47.997 40.4434 -47.8622 41.1295 -47.6032 41.7689C-47.3443 42.4083 -46.9662 42.9884 -46.4908 43.4761C-46.0153 43.9637 -45.4517 44.3493 -44.8323 44.6108C-44.213 44.8723 -43.5499 45.0044 -42.8812 44.9999H-12.1908C-11.523 45.0044 -10.8609 44.8727 -10.2422 44.6119C-9.62355 44.3512 -9.06048 43.9666 -8.58515 43.4802C-8.10983 42.9938 -7.73155 42.415 -7.47188 41.777C-7.21227 41.1389 -7.07635 40.4541 -7.07193 39.7616V8.2501C-7.0749 7.55755 -7.20935 6.87245 -7.46762 6.23383C-7.72589 5.5952 -8.10294 5.01561 -8.5772 4.52807C-9.05152 4.04059 -9.61376 3.65476 -10.2318 3.39256C-10.8499 3.13037 -11.5117 2.99704 -12.1795 3.00012" fill="black"/>
</svg>
